<svg version="1.1" id="Layer_1" xmlns="http://www.w3.org/2000/svg" xmlns:xlink="http://www.w3.org/1999/xlink" x="0px" y="0px"
	 width="100%" viewBox="0 0 320 320" enable-background="new 0 0 320 320" xml:space="preserve">
<path fill="#000101" opacity="1.000000" stroke="none" 
	d="
M174.000000,321.000000 
	C116.000008,321.000000 58.500019,321.000000 1.000023,321.000000 
	C1.000015,214.333359 1.000015,107.666725 1.000008,1.000066 
	C107.666618,1.000044 214.333237,1.000044 320.999878,1.000022 
	C320.999939,107.666595 320.999939,214.333191 320.999969,320.999878 
	C272.166656,321.000000 223.333328,321.000000 174.000000,321.000000 
M137.926453,292.575165 
	C140.891815,295.484528 143.857162,298.393921 147.513565,301.981293 
	C148.055466,294.287415 149.439713,288.501801 154.777893,284.439026 
	C157.885269,282.074097 156.999130,280.094910 154.441467,277.606628 
	C149.958572,273.245361 146.343033,268.211426 149.899673,261.556305 
	C151.324615,258.890015 153.683441,256.725067 155.128708,254.066406 
	C155.869247,252.704147 156.291565,249.793015 155.566910,249.223022 
	C148.346329,243.543869 147.962860,235.637924 147.923264,227.550766 
	C147.896591,222.102707 147.918182,216.654388 147.918182,211.149124 
	C145.820114,210.631973 144.213684,210.231552 142.605072,209.840195 
	C111.480209,202.267685 88.443481,174.372757 87.133797,142.669128 
	C85.528687,103.814232 112.675758,71.850250 151.639282,66.717964 
	C192.749313,61.302940 231.171890,93.395432 233.003525,134.677505 
	C234.622040,171.156296 212.228821,201.156616 176.628006,209.915848 
	C173.377228,210.715668 172.446289,212.005402 172.463531,215.247009 
	C172.607101,242.241928 172.570175,269.237762 172.610916,296.233307 
	C172.613190,297.746307 172.819824,299.259003 172.946228,300.973511 
	C184.614716,289.493622 196.047867,278.786255 206.864471,267.488647 
	C228.110550,245.297714 247.814346,221.867828 262.032074,194.352310 
	C277.669037,164.090118 281.399872,132.914169 269.970581,100.235893 
	C255.077255,57.653290 213.862244,25.728283 169.002197,23.196611 
	C129.553146,20.970306 96.362656,34.457836 70.830399,64.872292 
	C49.417660,90.379501 40.581863,120.032166 44.797157,153.184677 
	C47.831966,177.052887 58.645454,197.826141 72.008232,217.359848 
	C90.822540,244.862625 113.849922,268.718933 137.926453,292.575165 
M169.405609,102.956604 
	C161.310349,98.414398 153.512589,99.345520 148.170547,105.492249 
	C142.662521,111.829971 142.829788,119.428169 148.035217,126.968887 
	C149.344559,128.865631 149.974884,131.953949 149.525909,134.218857 
	C147.364441,145.122513 144.775223,155.943176 142.232376,166.768509 
	C141.323166,170.639206 141.936539,172.711212 146.623688,172.588364 
	C155.928452,172.344528 165.244202,172.485336 174.555115,172.529053 
	C178.085373,172.545624 179.207199,171.321548 178.317505,167.612762 
	C175.646271,156.477386 173.162537,145.289398 171.001205,134.045898 
	C170.571182,131.808884 171.230606,128.777298 172.525345,126.894463 
	C178.347061,118.428429 177.676758,110.511398 169.405609,102.956604 
z"/>
<path fill="#19C7C3" opacity="1.000000" stroke="none" 
	d="
M137.675140,292.326111 
	C113.849922,268.718933 90.822540,244.862625 72.008232,217.359848 
	C58.645454,197.826141 47.831966,177.052887 44.797157,153.184677 
	C40.581863,120.032166 49.417660,90.379501 70.830399,64.872292 
	C96.362656,34.457836 129.553146,20.970306 169.002197,23.196611 
	C213.862244,25.728283 255.077255,57.653290 269.970581,100.235893 
	C281.399872,132.914169 277.669037,164.090118 262.032074,194.352310 
	C247.814346,221.867828 228.110550,245.297714 206.864471,267.488647 
	C196.047867,278.786255 184.614716,289.493622 172.946228,300.973511 
	C172.819824,299.259003 172.613190,297.746307 172.610916,296.233307 
	C172.570175,269.237762 172.607101,242.241928 172.463531,215.247009 
	C172.446289,212.005402 173.377228,210.715668 176.628006,209.915848 
	C212.228821,201.156616 234.622040,171.156296 233.003525,134.677505 
	C231.171890,93.395432 192.749313,61.302940 151.639282,66.717964 
	C112.675758,71.850250 85.528687,103.814232 87.133797,142.669128 
	C88.443481,174.372757 111.480209,202.267685 142.605072,209.840195 
	C144.213684,210.231552 145.820114,210.631973 147.918182,211.149124 
	C147.918182,216.654388 147.896591,222.102707 147.923264,227.550766 
	C147.962860,235.637924 148.346329,243.543869 155.566910,249.223022 
	C156.291565,249.793015 155.869247,252.704147 155.128708,254.066406 
	C153.683441,256.725067 151.324615,258.890015 149.899673,261.556305 
	C146.343033,268.211426 149.958572,273.245361 154.441467,277.606628 
	C156.999130,280.094910 157.885269,282.074097 154.777893,284.439026 
	C149.439713,288.501801 148.055466,294.287415 147.513565,301.981293 
	C143.857162,298.393921 140.891815,295.484528 137.675140,292.326111 
z"/>
<path fill="#19C4C0" opacity="1.000000" stroke="none" 
	d="
M169.712311,103.164795 
	C177.676758,110.511398 178.347061,118.428429 172.525345,126.894463 
	C171.230606,128.777298 170.571182,131.808884 171.001205,134.045898 
	C173.162537,145.289398 175.646271,156.477386 178.317505,167.612762 
	C179.207199,171.321548 178.085373,172.545624 174.555115,172.529053 
	C165.244202,172.485336 155.928452,172.344528 146.623688,172.588364 
	C141.936539,172.711212 141.323166,170.639206 142.232376,166.768509 
	C144.775223,155.943176 147.364441,145.122513 149.525909,134.218857 
	C149.974884,131.953949 149.344559,128.865631 148.035217,126.968887 
	C142.829788,119.428169 142.662521,111.829971 148.170547,105.492249 
	C153.512589,99.345520 161.310349,98.414398 169.712311,103.164795 
z"/>
</svg>